# xmcd CD database file
#
# Track frame offsets:
#       150
#       13832
#       26253
#       39525
#       50458
#       67793
#       81805
#       100461
#       112793
#       130998
#       145478
#       158657
#
# Disc length: 2394 seconds
#
# Revision: 2
# Processed by: cddbd v1.5.2PL0 Copyright (c) Steve Scherf et al.
# Submitted via: jack 3.1.1
#
DISCID=9409580c
DTITLE=Rüdiger Helbig and Huckleberry Five - Blue Roots
DYEAR=2013
DGENRE=Bluegrass
TTITLE0=Monster Truck Guy
TTITLE1=Good Love
TTITLE2=Dancehall Saturday Night
TTITLE3=5 String Banjo Road
TTITLE4=Killarney
TTITLE5=Walk On Boy
TTITLE6=Pull The Shade Down
TTITLE7=River Road
TTITLE8=Barbados
TTITLE9=A Walk in the Irish Rain
TTITLE10=Kiss
TTITLE11=Duelling Banjos
EXTD=
EXTT0=
EXTT1=
EXTT2=
EXTT3=
EXTT4=
EXTT5=
EXTT6=
EXTT7=
EXTT8=
EXTT9=
EXTT10=
EXTT11=
PLAYORDER=
